<?xml version="1.0" encoding="UTF-8"?>
<svg width="59px" height="50px" viewBox="0 0 59 50" version="1.1" xmlns="http://www.w3.org/2000/svg" xmlns:xlink="http://www.w3.org/1999/xlink">
    <!-- Generator: Sketch 54.1 (76490) - https://sketchapp.com -->
    <title>iconfinder_message-01_186393</title>
    <desc>Created with Sketch.</desc>
    <g id="Page-1" stroke="none" stroke-width="1" fill="none" fill-rule="evenodd">
        <g id="Artboard" transform="translate(-537.000000, -95.000000)" fill="#BCBCBC" fill-rule="nonzero">
            <g id="iconfinder_message-01_186393" transform="translate(566.500000, 120.000000) scale(-1, 1) translate(-566.500000, -120.000000) translate(537.000000, 95.000000)">
                <path d="M58.7274514,45.8031211 L54.1559598,34.719814 C55.5798306,31.7327396 56.3661805,28.4461696 56.3661805,24.9980296 C56.3684018,11.1916772 43.7512627,0 28.1842009,0 C12.6193604,0 0,11.1916772 0,25 C0,38.8083228 12.6171391,50 28.1842009,50 C34.8615108,50 40.9879315,47.9291456 45.8170971,44.4888871 L56.1196131,48.0670712 C58.3942523,48.8591583 59.5693344,47.8385088 58.7274514,45.8031211 Z M14.1631829,28.1998739 C12.1706523,28.1998739 10.553526,26.7654477 10.553526,24.9980296 C10.553526,23.2306116 12.1706523,21.7961854 14.1631829,21.7961854 C16.1557135,21.7961854 17.7728398,23.2306116 17.7728398,24.9980296 C17.7728398,26.7654477 16.1557135,28.1998739 14.1631829,28.1998739 Z M27.4911468,28.1998739 C25.4986162,28.1998739 23.8814899,26.7654477 23.8814899,24.9980296 C23.8814899,23.2306116 25.4986162,21.7961854 27.4911468,21.7961854 C29.4836774,21.7961854 31.1008037,23.2306116 31.1008037,24.9980296 C31.1008037,26.7654477 29.4836774,28.1998739 27.4911468,28.1998739 Z M40.8191106,28.1998739 C38.82658,28.1998739 37.2094538,26.7654477 37.2094538,24.9980296 C37.2094538,23.2306116 38.82658,21.7961854 40.8191106,21.7961854 C42.8116412,21.7961854 44.4287675,23.2306116 44.4287675,24.9980296 C44.4287675,26.7654477 42.8116412,28.1998739 40.8191106,28.1998739 Z" id="Shape"></path>
            </g>
        </g>
    </g>
</svg>