<?xml version="1.0" encoding="UTF-8"?>
<svg width="45px" height="54px" viewBox="0 0 45 54" version="1.1" xmlns="http://www.w3.org/2000/svg" xmlns:xlink="http://www.w3.org/1999/xlink">
    <!-- Generator: Sketch 54.1 (76490) - https://sketchapp.com -->
    <title>Combined Shape</title>
    <desc>Created with Sketch.</desc>
    <g id="Page-1" stroke="none" stroke-width="1" fill="none" fill-rule="evenodd">
        <g id="Artboard" transform="translate(-447.000000, -95.000000)" fill="#BCBCBC" fill-rule="nonzero">
            <path d="M470.376556,95.6658806 L489.977556,115.281881 C492.379556,117.688881 490.404556,117.814881 490.034556,117.817881 L489.522556,117.817881 C489.522556,117.817881 487.118556,117.688881 487.118556,120.624881 L487.118556,143.568881 C487.111556,144.230881 486.927556,148.586881 482.765556,148.586881 L454.496556,148.586881 C450.817556,148.586881 450.341556,145.233881 450.292556,143.974881 L450.292556,120.372881 C450.292556,118.029881 448.770556,117.831881 448.384556,117.818881 L448.139556,117.818881 C448.139556,117.818881 445.575556,117.663881 448.139556,115.098881 L448.141556,115.098881 L467.651556,95.5868806 C467.947556,95.3018806 469.089556,94.3798806 470.376556,95.6658806 Z M468.652556,135.007881 C471.137837,135.007881 473.152556,132.993162 473.152556,130.507881 C473.152556,128.022599 471.137837,126.007881 468.652556,126.007881 C466.167274,126.007881 464.152556,128.022599 464.152556,130.507881 C464.152556,132.993162 466.167274,135.007881 468.652556,135.007881 Z" id="Combined-Shape"></path>
        </g>
    </g>
</svg>