<?xml version="1.0" encoding="UTF-8"?>
<svg width="47px" height="50px" viewBox="0 0 47 50" version="1.1" xmlns="http://www.w3.org/2000/svg" xmlns:xlink="http://www.w3.org/1999/xlink">
    <!-- Generator: Sketch 54.1 (76490) - https://sketchapp.com -->
    <title>Group 2</title>
    <desc>Created with Sketch.</desc>
    <g id="Page-1" stroke="none" stroke-width="1" fill="none" fill-rule="evenodd">
        <g id="Artboard" transform="translate(-642.000000, -95.000000)" fill="#BCBCBC" fill-rule="nonzero">
            <g id="Group-2" transform="translate(642.000000, 95.000000)">
                <g id="travel">
                    <path d="M45.7875437,19.4398148 C45.5374001,19.3028911 45.2296257,19.3304511 45.0076467,19.5096516 C44.7856676,19.6888521 44.6931652,19.9844296 44.7732467,20.258642 C45.0697021,21.2740706 45.2933007,22.309465 45.4423297,23.356893 C45.4930523,23.7040968 45.7892084,23.9620496 46.1392227,23.9638889 C46.1727305,23.9638048 46.2061936,23.961433 46.2393799,23.9567901 C46.624458,23.901294 46.8920818,23.5438017 46.837655,23.1576132 C46.6791404,22.0431212 46.4412404,20.9414366 46.1257795,19.8610082 C46.0736607,19.6809616 45.9518681,19.5292974 45.7875437,19.4398148 L45.7875437,19.4398148 Z" id="Path"></path>
                    <path d="M41.7533428,12.688786 C41.6122537,12.7896381 41.5169109,12.9425545 41.4882928,13.1138884 C41.4596748,13.2852224 41.5001263,13.4609359 41.6007467,13.6023663 C42.2146799,14.4657431 42.7665288,15.3718397 43.2521092,16.313786 C43.359219,16.5217315 43.5688492,16.6565935 43.8020341,16.6675709 C44.035219,16.6785482 44.2565322,16.5639731 44.3826073,16.367005 C44.5086823,16.1700369 44.5203653,15.9205998 44.4132555,15.7126543 C43.89914,14.7154485 43.314813,13.7562302 42.6647118,12.842284 C42.5642613,12.700635 42.4117411,12.6048546 42.2407783,12.5760601 C42.0698155,12.5472656 41.8944489,12.5878214 41.7533428,12.688786 L41.7533428,12.688786 Z" id="Path"></path>
                    <path d="M39.4149389,15.4846708 C39.7400849,15.4845739 40.0467606,15.3331462 40.2450328,15.0747942 C40.2886982,15.0181655 40.3222069,14.9543546 40.3440611,14.886214 L41.3670808,11.6924897 L44.1971376,9.88528807 C44.2572409,9.84699493 44.3102322,9.79849932 44.3537358,9.74197531 C44.6024322,9.4187825 44.6425666,8.98066343 44.4567478,8.61746401 C44.2709291,8.25426459 43.89259,8.03133201 43.4856725,8.04526749 L40.1962882,7.60432099 L38.550262,6.33014403 L40.8109825,3.39578189 C40.9723483,3.18644776 41.0441385,2.92141307 41.0105544,2.65900413 C40.9769703,2.39659519 40.840764,2.15831606 40.6319105,1.99660494 L39.9238319,1.44825103 C39.4049117,1.04810135 38.6767874,1.06925875 38.1818559,1.49886831 L35.4202467,3.90627572 L31.0540699,0.525205761 C29.9561942,-0.321769914 28.3815735,-0.117598435 27.5347611,0.981533122 C26.6879486,2.08066468 26.8887581,3.65964985 27.9835742,4.51059671 L32.3496485,7.89156379 L30.7244541,11.1788066 C30.4349614,11.7672944 30.5984233,12.4787465 31.1155393,12.8809671 L31.8236179,13.4296296 C31.996955,13.5646079 32.2102093,13.63784 32.4296921,13.6377572 C32.4727549,13.6377354 32.5157721,13.6349519 32.5584803,13.6294239 C32.8203843,13.596417 33.058239,13.459758 33.2190459,13.2498971 L35.479869,10.3154321 L37.1259978,11.5901235 L38.3882249,14.6624486 C38.4969756,15.1432903 38.923243,15.4846234 39.4150415,15.4846708 L39.4149389,15.4846708 Z M32.038607,4.35185185 C31.7923839,4.67148585 31.334328,4.73050272 31.0154897,4.48367239 C30.6966514,4.23684206 30.6377583,3.77762638 30.8839455,3.45796463 C31.1301328,3.13830289 31.5881821,3.07923441 31.907048,3.32602881 L31.907048,3.32602881 C32.2254866,3.57313706 32.2843374,4.0320226 32.038607,4.35185185 L32.038607,4.35185185 Z M33.8389738,5.74639918 C33.5926725,6.066007 33.1345846,6.12496188 32.8157469,5.87808619 C32.4969093,5.6312105 32.4380305,5.17196893 32.68423,4.85228223 C32.9304295,4.53259553 33.3884985,4.47349393 33.7074148,4.72026749 L33.7074148,4.72026749 C34.0263232,4.96720738 34.0851777,5.42657201 33.8388712,5.7462963 L33.8389738,5.74639918 Z M35.6393406,7.14063786 C35.3930393,7.46024568 34.9349514,7.51920057 34.6161138,7.27232487 C34.2972761,7.02544918 34.2383973,6.56620761 34.4845968,6.24652091 C34.7307963,5.92683422 35.1888653,5.86773262 35.5077817,6.11450617 L35.5077817,6.11450617 C35.6609802,6.23307664 35.7609039,6.40781822 35.7855584,6.60026863 C35.810213,6.79271904 35.7575777,6.98710412 35.639238,7.14063786 L35.6393406,7.14063786 Z M37.43981,8.53467078 C37.193534,8.85424311 36.7354908,8.91317961 36.4166999,8.66631453 C36.097909,8.41944946 36.0390698,7.96024989 36.2852734,7.64062151 C36.5314771,7.32099313 36.9895069,7.26195236 37.3083537,7.50874486 L37.3083537,7.50874486 C37.6268246,7.75589128 37.6856332,8.21485125 37.43981,8.53467078 L37.43981,8.53467078 Z" id="Shape"></path>
                    <path d="M28.8924803,48.2023663 C28.8449461,48.2023768 28.797581,48.2080405 28.7513777,48.2192387 C27.7206502,48.4687845 26.6734447,48.6441286 25.6177707,48.74393 C25.2867008,48.7751807 25.0435851,49.0695811 25.0747566,49.4014918 C25.1059281,49.7334024 25.3995829,49.9771354 25.7306528,49.9458848 C26.8435125,49.8404656 27.947459,49.6556348 29.0340961,49.3927984 C29.3306593,49.3209858 29.5267661,49.0381333 29.4905553,48.7344293 C29.4543445,48.4307253 29.1972636,48.2021813 28.8921725,48.2024691 L28.8924803,48.2023663 Z" id="Path"></path>
                    <path d="M41.8492926,40.2196502 C41.7436148,40.135715 41.6127336,40.0900676 41.4779105,40.0901235 C41.4539018,40.0901455 41.4299154,40.0915883 41.4060764,40.0944444 C41.2472877,40.11296 41.1025159,40.1944782 41.0041135,40.3207819 C40.3475027,41.1560543 39.6327833,41.9437193 38.8653057,42.6778807 C38.6246615,42.9079993 38.6156563,43.2901233 38.8451921,43.5313786 C39.074728,43.7726339 39.4558842,43.7816619 39.6965284,43.5515432 C40.50536,42.7779724 41.2584938,41.9479098 41.9502707,41.0675926 C42.1556726,40.8054076 42.1104889,40.4259873 41.8492926,40.2196502 L41.8492926,40.2196502 Z" id="Path"></path>
                    <path d="M46.3697074,25.9156379 C46.0373396,25.9160346 45.7679851,26.186027 45.7675328,26.5192387 C45.7675705,27.5825899 45.6928145,28.6446203 45.543821,29.697428 C45.521267,29.8559218 45.5624551,30.0169052 45.6583202,30.144947 C45.7541853,30.2729887 45.8968705,30.3575948 46.0549716,30.380144 C46.3836382,30.425229 46.6872937,30.1967715 46.7359585,29.8677984 C46.8930595,28.7585628 46.9719306,27.6396001 46.9719847,26.5192387 C46.9715887,26.1859634 46.7021387,25.9159213 46.3697074,25.9156379 Z" id="Path"></path>
                    <path d="M21.3829476,48.74393 C20.3272573,48.6439947 19.2800271,48.4686522 18.249238,48.2192387 C18.040151,48.1685709 17.8199842,48.2335817 17.6716723,48.3897823 C17.5233604,48.5459828 17.4694354,48.7696424 17.5302105,48.9765107 C17.5909856,49.183379 17.7572274,49.3420277 17.9663144,49.3926955 C19.0529751,49.6555641 20.1569604,49.8403612 21.2698603,49.945679 C21.6009302,49.9769297 21.894585,49.7331966 21.9257566,49.401286 C21.9569281,49.0693754 21.7138123,48.774975 21.3827424,48.7437243 L21.3829476,48.74393 Z" id="Path"></path>
                    <path d="M45.3148755,33.4490741 C45.0006147,33.340119 44.6577404,33.5071098 44.5489192,33.8221193 C44.2018091,34.8272357 43.7832073,35.8060866 43.2963384,36.7511317 C43.1441684,37.0473698 43.2598422,37.4111949 43.554941,37.5645062 C43.6967979,37.6381131 43.862028,37.6521471 44.0142148,37.6035151 C44.1664017,37.5548831 44.2930531,37.447577 44.3662555,37.3052469 C44.8794818,36.308758 45.3208514,35.2766932 45.686976,34.2169753 C45.7392237,34.0656771 45.7293711,33.8997664 45.6595862,33.755752 C45.5898014,33.6117375 45.4658026,33.5014197 45.3148755,33.4490741 L45.3148755,33.4490741 Z" id="Path"></path>
                    <path d="M35.8625393,45.207716 C35.7472646,45.2076879 35.6344259,45.2409789 35.5375415,45.3036008 C34.6463835,45.8786496 33.7154071,46.3891727 32.751714,46.8312757 C32.4941256,46.9494196 32.3534696,47.2315519 32.4138301,47.509014 C32.4741907,47.7864762 32.7192523,47.9842708 33.0025175,47.9841564 C33.0888368,47.9841674 33.1741292,47.9653878 33.2525,47.9291152 C34.268516,47.4630776 35.2500117,46.924841 36.1894869,46.3185185 C36.4143746,46.1735469 36.5169342,45.8972391 36.4412841,45.640147 C36.365634,45.3830548 36.1299052,45.2067955 35.8625393,45.2074074 L35.8625393,45.207716 Z" id="Path"></path>
                    <path d="M2.45077293,33.8216049 C2.39863125,33.6702461 2.28859666,33.5458849 2.14491917,33.4759287 C2.00124169,33.4059725 1.83571421,33.3961631 1.68481659,33.4486626 C1.37063196,33.5576697 1.20404921,33.9013534 1.31271616,34.216358 C1.67859964,35.2754444 2.11969523,36.3068911 2.63261572,37.3027778 C2.73029532,37.4961803 2.92392382,37.6222153 3.13989038,37.6329688 C3.35585695,37.6437222 3.56098941,37.5375423 3.67730353,37.3547949 C3.79361764,37.1720476 3.80324773,36.9408026 3.70253275,36.7489712 C3.21610759,35.8043923 2.79778425,34.8261011 2.45077293,33.8216049 L2.45077293,33.8216049 Z" id="Path"></path>
                    <path d="M14.2484913,46.8317901 C13.2838761,46.3889307 12.351981,45.8776896 11.459893,45.3019547 C11.3631593,45.2392167 11.250414,45.2058145 11.1352031,45.2057613 C11.0919378,45.2058009 11.0487997,45.2104567 11.0065175,45.2196502 C10.7687533,45.2715573 10.5855044,45.4618036 10.542064,45.7018389 C10.4986236,45.9418741 10.6035273,46.1845341 10.8079476,46.3168724 C11.7483406,46.9236607 12.7307198,47.4624085 13.7476026,47.9290123 C13.8259629,47.9653161 13.9112623,47.9840974 13.9975852,47.9840535 C14.2804691,47.9838052 14.5250434,47.7861852 14.5853771,47.5091083 C14.6457108,47.2320314 14.505536,46.9502061 14.2484913,46.8317901 L14.2484913,46.8317901 Z" id="Path"></path>
                    <path d="M5.99465502,40.31893 C5.89620694,40.1926796 5.75145923,40.111175 5.59269214,40.0925926 C5.56885051,40.0897775 5.5448645,40.088369 5.52085808,40.0883745 C5.29034109,40.088725 5.08025177,40.2209768 4.97979038,40.4289783 C4.87932899,40.6369797 4.9061267,40.884226 5.04880568,41.0657407 C5.74035362,41.9458728 6.49317438,42.7758274 7.30162445,43.5493827 C7.54275513,43.7761361 7.92114439,43.7655864 8.14933204,43.5257482 C8.3775197,43.2859099 8.37016138,42.9064849 8.13284716,42.6757202 C7.36553122,41.9416964 6.65101424,41.1541309 5.99465502,40.31893 L5.99465502,40.31893 Z" id="Path"></path>
                    <path d="M0.926248908,22.7718107 C1.08310383,22.8021295 1.24554612,22.7686456 1.37774581,22.6787447 C1.50994549,22.5888438 1.60104161,22.4499116 1.63094105,22.2925926 C1.83070914,21.2486424 2.10485994,20.2203904 2.45128603,19.2157407 C2.55594196,18.901884 2.38905689,18.5620602 2.07711738,18.4538308 C1.76517787,18.3456015 1.42447181,18.5093133 1.31322926,18.8208848 C0.948015881,19.8802864 0.658914618,20.9645387 0.448141921,22.0653292 C0.385704713,22.3927521 0.599702356,22.7089687 0.926248908,22.7718107 L0.926248908,22.7718107 Z" id="Path"></path>
                    <path d="M1.45617904,29.6968107 C1.30709856,28.6439433 1.23234215,27.5818383 1.23246725,26.5184156 C1.23510911,26.300875 1.12079539,26.0987352 0.933242755,25.9893 C0.745690122,25.8798647 0.513911416,25.8800627 0.326545094,25.9898183 C0.139178772,26.0995738 0.025208854,26.3019087 0.028220524,26.5194444 C0.0282638091,27.639533 0.107135035,28.7582227 0.264246725,29.8671811 C0.294603374,30.0806767 0.436264146,30.2617185 0.635866798,30.3421099 C0.835469449,30.4225014 1.06268959,30.390029 1.23193558,30.2569248 C1.40118158,30.1238206 1.48674094,29.9103063 1.45638428,29.6968107 L1.45617904,29.6968107 Z" id="Path"></path>
                    <path d="M5.89572926,11.8705761 C5.6343495,11.6646985 5.25606271,11.7098031 5.05013974,11.9713992 C4.35852716,12.852186 3.73017747,13.7810998 3.16983188,14.7511317 C3.06216601,14.9378328 3.06197786,15.1679243 3.16933824,15.3548022 C3.27669861,15.54168 3.47531246,15.65698 3.69042358,15.6573045 C3.90544463,15.6569569 4.10411616,15.5421908 4.21224672,15.3558642 C4.74372983,14.4353977 5.33988515,13.5540215 5.99619432,12.7184156 C6.20146727,12.4563327 6.15653586,12.07715 5.89572926,11.8705761 Z" id="Path"></path>
                    <path d="M18.4217424,3.71748971 C18.3276545,3.65961319 18.2194458,3.62892309 18.109059,3.62880658 C18.0610025,3.62887844 18.0131229,3.63464548 17.966417,3.64598765 C16.8795606,3.90946852 15.8129875,4.25088214 14.7749323,4.66759259 C14.5737898,4.74677186 14.4303998,4.9279473 14.3992124,5.14232034 C14.3680251,5.35669338 14.4538243,5.57138118 14.6240291,5.70485936 C14.7942338,5.83833754 15.0227364,5.87013179 15.2227664,5.78816872 C16.2070945,5.39313146 17.2184087,5.06935894 18.2489301,4.81934156 C18.4856568,4.76203198 18.6646336,4.5673946 18.7023949,4.32619825 C18.7401563,4.0850019 18.6292648,3.8447524 18.4214345,3.71748971 L18.4217424,3.71748971 Z" id="Path"></path>
                    <path d="M11.6418384,6.90123457 C11.461659,6.62112001 11.0892078,6.54027106 10.8095895,6.72057613 C9.87023285,7.32740586 8.97495582,8.0002162 8.1304869,8.73395062 C7.8792727,8.95236446 7.85223432,9.33359031 8.07009498,9.58544239 C8.28795564,9.83729446 8.66821594,9.8644015 8.91943013,9.64598765 C9.72070104,8.9497489 10.5702365,8.31138342 11.4616376,7.73569959 C11.7408042,7.55484913 11.8213959,7.18164919 11.6418384,6.90123457 L11.6418384,6.90123457 Z" id="Path"></path>
                    <path d="M22.3840066,3.01440329 C22.1399027,3.02646895 21.9271561,3.18494015 21.845179,3.41576659 C21.7632019,3.64659304 21.8281802,3.90419872 22.0097511,4.06820988 C22.1268438,4.17489931 22.2818779,4.22978673 22.4398319,4.22047325 C22.791682,4.20387517 23.1445582,4.19557613 23.4984607,4.19557613 C24.2065393,4.19557613 24.9162598,4.22880658 25.617976,4.29516461 C25.8330348,4.31708701 26.0433103,4.22174163 26.1689053,4.0453564 C26.2945002,3.86897117 26.3161355,3.6386216 26.2255903,3.44183252 C26.1350452,3.24504344 25.9462186,3.1120224 25.7308581,3.09331276 C24.6184695,2.98831533 23.5000886,2.96194702 22.3840066,3.01440329 L22.3840066,3.01440329 Z" id="Path"></path>
                </g>
                <g id="Group" transform="translate(5.028384, 8.024691)">
                    <path d="M32.2357684,9.09483726 C31.7408591,9.44840508 31.3866411,9.96607334 31.2357823,10.556257 L30.7823881,12.3319304 C30.5291439,13.3243172 30.8856391,14.3728973 31.6907158,15.0036476 C32.9809337,16.0204383 33.575938,17.6884341 33.221481,19.2948934 L32.3053168,23.3914141 C32.1278812,24.1867646 31.7263486,24.9142996 31.1484619,25.487514 L30.3497045,26.2805836 C29.7909588,26.8326785 29.5156013,27.6111595 29.6025836,28.3928171 L30.0899823,32.8702301 C37.566841,26.8067954 39.1386995,16.0000699 33.7003436,8.04854097 L32.2357684,9.09483726 Z" id="Path"></path>
                    <path d="M29.967398,24.291807 C30.3169461,23.9449503 30.5597966,23.5047617 30.6670804,23.023569 L31.5832446,18.9270483 C31.7976814,17.9550211 31.4376605,16.945777 30.657005,16.3305275 C29.326443,15.2880976 28.7372912,13.5550831 29.1559063,11.9149832 L29.6093005,10.1393098 C29.8587419,9.16394251 30.4441181,8.30839531 31.2619504,7.72390572 L32.6893025,6.70482604 C29.4066974,2.71762126 24.6089025,0.290373802 19.4595675,0.0117845118 L20.2721787,4.96534792 C20.4587719,6.10641418 19.9573031,7.25057438 18.9927394,7.88453984 L15.7501312,10.0133277 C15.3304643,10.2874545 15.1182287,10.7891053 15.2133349,11.2821268 L15.649237,13.5707071 C15.7234491,13.9559916 15.9746417,14.2835842 16.3269494,14.4545455 L18.6052553,15.5542929 C19.7832875,16.12615 20.4386204,17.4133228 20.2094871,18.7052469 L19.3793839,23.3271605 C19.2986585,23.7739386 19.115679,24.19586 18.8448265,24.5597643 C18.2990837,25.2985853 17.4358235,25.7337065 16.5188023,25.7321829 C16.4153208,25.7321628 16.3119096,25.7267777 16.2089829,25.7160494 C15.1868897,25.6143595 14.29534,24.9766689 13.866866,24.0408249 L13.031865,22.2390572 C12.8284507,21.802519 12.3917154,21.5231603 11.9111137,21.5221661 L8.53444642,21.5221661 C8.28031685,21.5216314 8.03226443,21.6000492 7.8244087,21.746633 L5.55407921,23.3451178 C4.87165894,23.8250398 4.01704531,23.9893502 3.20594503,23.7965769 L0.597808862,23.1757856 C2.67026817,31.1262626 9.89532871,37.0106622 18.4660185,37.0106622 C22.0386262,37.0147257 25.5347732,35.9735256 28.5257723,34.0147306 L27.933841,28.5760382 C27.7898613,27.2841057 28.2449276,25.9973461 29.1685006,25.0848765 L29.967398,24.291807 Z" id="Path"></path>
                    <path d="M4.58921716,21.9674523 L6.85968659,20.3698092 C7.34985009,20.0237365 7.93493013,19.8384253 8.53444642,19.8393659 L11.9109738,19.8393659 C13.0445597,19.8417688 14.0746668,20.5006755 14.5545139,21.530303 L15.3896548,23.3320707 C15.5728627,23.7275073 15.9499405,23.9972678 16.3825154,24.0423606 C16.8150904,24.0874535 17.2394599,23.9012381 17.499897,23.5520483 C17.614762,23.3977753 17.6923619,23.2188904 17.7265941,23.0294613 L18.5566973,18.4075477 C18.6538164,17.8598796 18.3759974,17.3142352 17.876606,17.0718294 L15.5983001,15.9720819 C14.7670791,15.5687261 14.1745123,14.7957156 13.9996657,13.8866442 L13.5637636,11.5982043 C13.3395946,10.4352153 13.8401413,9.25193963 14.8299089,8.60507856 L18.072657,6.47629068 C18.481555,6.20746843 18.694133,5.72240012 18.6150508,5.23863636 L17.7557009,-8.52651283e-14 C7.90151371,0.375701459 2.07861887e-07,8.52833895 2.07861887e-07,18.4977553 C-0.000142790931,19.4546502 0.0734965799,20.4101246 0.220260232,21.3556397 L3.59384896,22.1585297 C3.93762334,22.240655 4.30002155,22.1710867 4.58921716,21.9674523 Z" id="Path"></path>
                </g>
            </g>
        </g>
    </g>
</svg>