<?xml version="1.0" encoding="UTF-8"?>
<svg width="30px" height="25px" viewBox="0 0 30 25" version="1.1" xmlns="http://www.w3.org/2000/svg" xmlns:xlink="http://www.w3.org/1999/xlink">
    <!-- Generator: Sketch 54.1 (76490) - https://sketchapp.com -->
    <title>iconfinder_46.Calendar_290104</title>
    <desc>Created with Sketch.</desc>
    <g id="Page-1" stroke="none" stroke-width="1" fill="none" fill-rule="evenodd">
        <g id="Booking_Select_room" transform="translate(-56.000000, -570.000000)" fill="#FFFFFF" fill-rule="nonzero">
            <g id="iconfinder_46.Calendar_290104" transform="translate(56.000000, 570.000000)">
                <path d="M27.3913043,25 L2.60869565,25 C1.16804348,25 0,23.8217105 0,22.3684211 L0,2.63157895 C0,1.17828947 1.16804348,0 2.60869565,0 L27.3913043,0 C28.8319565,0 30,1.17828947 30,2.63157895 L30,22.3684211 C30,23.8217105 28.8319565,25 27.3913043,25 Z M28.6956522,2.63157895 C28.6956522,1.90526316 28.1113043,1.31578947 27.3913043,1.31578947 L2.60869565,1.31578947 C1.88869565,1.31578947 1.30434783,1.90526316 1.30434783,2.63157895 L1.30434783,6.57894737 L28.6956522,6.57894737 L28.6956522,2.63157895 Z M28.6956522,7.89473684 L1.30434783,7.89473684 L1.30434783,22.3684211 C1.30434783,23.0947368 1.88869565,23.6842105 2.60869565,23.6842105 L27.3913043,23.6842105 C28.1113043,23.6842105 28.6956522,23.0947368 28.6956522,22.3684211 L28.6956522,7.89473684 Z M26.0869565,17.1052632 L24.7826087,17.1052632 C24.4226087,17.1052632 24.1304348,16.8111842 24.1304348,16.4473684 L24.1304348,15.1315789 C24.1304348,14.7684211 24.4226087,14.4736842 24.7826087,14.4736842 L26.0869565,14.4736842 C26.4476087,14.4736842 26.7391304,14.7684211 26.7391304,15.1315789 L26.7391304,16.4473684 C26.7391304,16.8111842 26.4476087,17.1052632 26.0869565,17.1052632 Z M26.0869565,12.5 L24.7826087,12.5 C24.4226087,12.5 24.1304348,12.2059211 24.1304348,11.8421053 L24.1304348,10.5263158 C24.1304348,10.1625 24.4226087,9.86842105 24.7826087,9.86842105 L26.0869565,9.86842105 C26.4476087,9.86842105 26.7391304,10.1625 26.7391304,10.5263158 L26.7391304,11.8421053 C26.7391304,12.2059211 26.4476087,12.5 26.0869565,12.5 Z M20.8695652,17.1052632 L19.5652174,17.1052632 C19.2052174,17.1052632 18.9130435,16.8111842 18.9130435,16.4473684 L18.9130435,15.1315789 C18.9130435,14.7684211 19.2052174,14.4736842 19.5652174,14.4736842 L20.8695652,14.4736842 C21.2302174,14.4736842 21.5217391,14.7684211 21.5217391,15.1315789 L21.5217391,16.4473684 C21.5217391,16.8111842 21.2302174,17.1052632 20.8695652,17.1052632 Z M20.8695652,12.5 L19.5652174,12.5 C19.2052174,12.5 18.9130435,12.2059211 18.9130435,11.8421053 L18.9130435,10.5263158 C18.9130435,10.1625 19.2052174,9.86842105 19.5652174,9.86842105 L20.8695652,9.86842105 C21.2302174,9.86842105 21.5217391,10.1625 21.5217391,10.5263158 L21.5217391,11.8421053 C21.5217391,12.2059211 21.2302174,12.5 20.8695652,12.5 Z M15.6521739,17.1052632 L14.3478261,17.1052632 C13.9871739,17.1052632 13.6956522,16.8111842 13.6956522,16.4473684 L13.6956522,15.1315789 C13.6956522,14.7684211 13.9871739,14.4736842 14.3478261,14.4736842 L15.6521739,14.4736842 C16.0128261,14.4736842 16.3043478,14.7684211 16.3043478,15.1315789 L16.3043478,16.4473684 C16.3043478,16.8111842 16.0128261,17.1052632 15.6521739,17.1052632 Z M15.6521739,12.5 L14.3478261,12.5 C13.9871739,12.5 13.6956522,12.2059211 13.6956522,11.8421053 L13.6956522,10.5263158 C13.6956522,10.1625 13.9871739,9.86842105 14.3478261,9.86842105 L15.6521739,9.86842105 C16.0128261,9.86842105 16.3043478,10.1625 16.3043478,10.5263158 L16.3043478,11.8421053 C16.3043478,12.2059211 16.0128261,12.5 15.6521739,12.5 Z M10.4347826,21.7105263 L9.13043478,21.7105263 C8.76978261,21.7105263 8.47826087,21.4164474 8.47826087,21.0526316 L8.47826087,19.7368421 C8.47826087,19.3730263 8.76978261,19.0789474 9.13043478,19.0789474 L10.4347826,19.0789474 C10.7954348,19.0789474 11.0869565,19.3730263 11.0869565,19.7368421 L11.0869565,21.0526316 C11.0869565,21.4164474 10.7954348,21.7105263 10.4347826,21.7105263 Z M10.4347826,17.1052632 L9.13043478,17.1052632 C8.76978261,17.1052632 8.47826087,16.8111842 8.47826087,16.4473684 L8.47826087,15.1315789 C8.47826087,14.7684211 8.76978261,14.4736842 9.13043478,14.4736842 L10.4347826,14.4736842 C10.7954348,14.4736842 11.0869565,14.7684211 11.0869565,15.1315789 L11.0869565,16.4473684 C11.0869565,16.8111842 10.7954348,17.1052632 10.4347826,17.1052632 Z M10.4347826,12.5 L9.13043478,12.5 C8.76978261,12.5 8.47826087,12.2059211 8.47826087,11.8421053 L8.47826087,10.5263158 C8.47826087,10.1625 8.76978261,9.86842105 9.13043478,9.86842105 L10.4347826,9.86842105 C10.7954348,9.86842105 11.0869565,10.1625 11.0869565,10.5263158 L11.0869565,11.8421053 C11.0869565,12.2059211 10.7954348,12.5 10.4347826,12.5 Z M5.2173913,21.7105263 L3.91304348,21.7105263 C3.5523913,21.7105263 3.26086957,21.4164474 3.26086957,21.0526316 L3.26086957,19.7368421 C3.26086957,19.3730263 3.5523913,19.0789474 3.91304348,19.0789474 L5.2173913,19.0789474 C5.57804348,19.0789474 5.86956522,19.3730263 5.86956522,19.7368421 L5.86956522,21.0526316 C5.86956522,21.4164474 5.57804348,21.7105263 5.2173913,21.7105263 Z M5.2173913,17.1052632 L3.91304348,17.1052632 C3.5523913,17.1052632 3.26086957,16.8111842 3.26086957,16.4473684 L3.26086957,15.1315789 C3.26086957,14.7684211 3.5523913,14.4736842 3.91304348,14.4736842 L5.2173913,14.4736842 C5.57804348,14.4736842 5.86956522,14.7684211 5.86956522,15.1315789 L5.86956522,16.4473684 C5.86956522,16.8111842 5.57804348,17.1052632 5.2173913,17.1052632 Z M14.3478261,19.0789474 L15.6521739,19.0789474 C16.0128261,19.0789474 16.3043478,19.3730263 16.3043478,19.7368421 L16.3043478,21.0526316 C16.3043478,21.4164474 16.0128261,21.7105263 15.6521739,21.7105263 L14.3478261,21.7105263 C13.9871739,21.7105263 13.6956522,21.4164474 13.6956522,21.0526316 L13.6956522,19.7368421 C13.6956522,19.3730263 13.9871739,19.0789474 14.3478261,19.0789474 Z" id="Shape"></path>
            </g>
        </g>
    </g>
</svg>