<?xml version="1.0" encoding="UTF-8"?>
<svg width="35px" height="40px" viewBox="0 0 35 40" version="1.1" xmlns="http://www.w3.org/2000/svg" xmlns:xlink="http://www.w3.org/1999/xlink">
    <!-- Generator: Sketch 54.1 (76490) - https://sketchapp.com -->
    <title>3298601_document_new_new document_plus_icon</title>
    <desc>Created with Sketch.</desc>
    <g id="new_updates" stroke="none" stroke-width="1" fill="none" fill-rule="evenodd">
        <g id="Help_Center" transform="translate(-38.000000, -552.000000)" fill-rule="nonzero">
            <g id="3298601_document_new_new-document_plus_icon" transform="translate(38.000000, 552.000000)">
                <path d="M27.9027778,38.9268293 L28.7777778,38.3414634 C28.7777778,39.0419221 28.2119154,39.6097561 27.5138889,39.6097561 L1.84722222,39.6097561 C1.14919566,39.6097561 0.583333333,39.0419221 0.583333333,38.3414634 L0.583333333,2.04878049 C0.583333333,1.34832178 1.14919566,0.780487805 1.84722222,0.780487805 L1.26388889,0.780487805 L3.45138889,35.4634146 C3.45138889,36.1638733 4.01725122,36.7317073 4.71527778,36.7317073 L27.9027778,38.9268293 Z" id="Path" fill="#C5C6EF"></path>
                <rect id="Rectangle" fill="#385868" x="6.44388889" y="7.06536585" width="8.23666667" height="1.36878049"></rect>
                <rect id="Rectangle" fill="#385868" x="6.44388889" y="14.3297561" width="8.23763889" height="1.36878049"></rect>
                <rect id="Rectangle" fill="#385868" x="6.44388889" y="10.5726829" width="13.2290278" height="1.36878049"></rect>
                <rect id="Rectangle" fill="#385868" x="6.44388889" y="23.1629268" width="8.23666667" height="1.36878049"></rect>
                <rect id="Rectangle" fill="#385868" x="6.44388889" y="30.4273171" width="8.23763889" height="1.36878049"></rect>
                <rect id="Rectangle" fill="#385868" x="6.44388889" y="26.6702439" width="13.2290278" height="1.36878049"></rect>
                <path d="M27.5138889,40 L1.84722222,40 C0.827029559,40 1.24937568e-16,39.1700888 0,38.1463415 L0,1.85365854 C-1.24937568e-16,0.829911195 0.827029559,1.88059336e-16 1.84722222,0 L27.5138889,0 C28.5340816,6.26864452e-17 29.3611111,0.829911195 29.3611111,1.85365854 L29.3611111,38.1463415 C29.3611111,39.1700888 28.5340816,40 27.5138889,40 Z M1.84722222,1.17073171 C1.47136177,1.17073171 1.16666667,1.47648846 1.16666667,1.85365854 L1.16666667,38.1463415 C1.16666667,38.5235115 1.47136177,38.8292683 1.84722222,38.8292683 L27.5138889,38.8292683 C27.8897493,38.8292683 28.1944444,38.5235115 28.1944444,38.1463415 L28.1944444,1.85365854 C28.1944444,1.47648846 27.8897493,1.17073171 27.5138889,1.17073171 L1.84722222,1.17073171 Z" id="Shape" fill="#426572"></path>
                <ellipse id="Oval" fill="#6AE184" cx="28.7291667" cy="22.3902439" rx="5.6875" ry="5.70731707"></ellipse>
                <path d="M33.7361111,22.097561 C33.7355546,23.7214815 33.0458865,25.2683256 31.8397109,26.3509624 C30.6335353,27.4335993 29.0249969,27.9495752 27.4166667,27.7697561 C30.2961599,27.4477036 32.4741667,25.0049791 32.4741667,22.097561 C32.4741667,19.1901428 30.2961599,16.7474183 27.4166667,16.4253659 C29.0249969,16.2455468 30.6335353,16.7615227 31.8397109,17.8441595 C33.0458865,18.9267964 33.7355546,20.4736404 33.7361111,22.097561 L33.7361111,22.097561 Z" id="Path" fill="#A8FF8C"></path>
                <path d="M29.75,27.7580488 C27.5586364,28.0474131 25.3986615,27.0365812 24.2111313,25.1659515 C23.023601,23.2953217 23.023601,20.9037027 24.2111313,19.0330729 C25.3986615,17.1624431 27.5586364,16.1516113 29.75,16.4409756 C26.9200963,16.8146576 24.8045164,19.2352675 24.8045164,22.0995122 C24.8045164,24.9637569 26.9200963,27.3843667 29.75,27.7580488 L29.75,27.7580488 Z" id="Path" fill="#389D9C"></path>
                <path d="M28.7291667,28.3902439 C25.265881,28.3902439 22.4583333,25.5729138 22.4583333,22.097561 C22.4583333,18.6222082 25.265881,15.804878 28.7291667,15.804878 C32.1924523,15.804878 35,18.6222082 35,22.097561 C34.9962492,25.5713535 32.1908975,28.38648 28.7291667,28.3902439 Z M28.7291667,16.9756098 C25.9102133,16.9756098 23.625,19.2687854 23.625,22.097561 C23.625,24.9263365 25.9102133,27.2195122 28.7291667,27.2195122 C31.5481201,27.2195122 33.8333333,24.9263365 33.8333333,22.097561 C33.8301187,19.2701227 31.5467875,16.9788356 28.7291667,16.9756098 Z" id="Shape" fill="#426572"></path>
                <path d="M27.6723611,20.5853659 L27.6723611,24.2682927 C27.6723611,25.2097561 29.1306944,25.2117073 29.1306944,24.2682927 L29.1306944,20.5853659 C29.1306944,19.6439024 27.6723611,19.6419512 27.6723611,20.5853659 Z" id="Path" fill="#426572"></path>
                <path d="M30.2361111,21.6956098 L26.5659722,21.6956098 C25.6277778,21.6956098 25.6258333,23.1590244 26.5659722,23.1590244 L30.2361111,23.1590244 C31.1743056,23.1590244 31.17625,21.6956098 30.2361111,21.6956098 Z" id="Path" fill="#426572"></path>
            </g>
        </g>
    </g>
</svg>