<?xml version="1.0" encoding="UTF-8"?>
<svg width="24px" height="20px" viewBox="0 0 24 20" version="1.1" xmlns="http://www.w3.org/2000/svg" xmlns:xlink="http://www.w3.org/1999/xlink">
    <!-- Generator: Sketch 54.1 (76490) - https://sketchapp.com -->
    <title>iconfinder_pencil-writing-write-edit-pen_3643749</title>
    <desc>Created with Sketch.</desc>
    <g id="Page-1" stroke="none" stroke-width="1" fill="none" fill-rule="evenodd">
        <g id="Booking_Select_room" transform="translate(-442.000000, -511.000000)" fill="#24BA99" fill-rule="nonzero">
            <g id="iconfinder_pencil-writing-write-edit-pen_3643749" transform="translate(442.000000, 511.000000)">
                <path d="M1.5483871,20 C1.3274141,20.0013328 1.11639916,19.908781 0.968491596,19.7456561 C0.820584031,19.5825311 0.749881999,19.3643816 0.774193548,19.1461538 L1.37032258,13.7615385 C1.39154351,13.5894388 1.47065977,13.4295099 1.59483871,13.3076923 L14.2606452,0.723076923 C14.7253928,0.260385299 15.3562838,0.000370110364 16.0141935,0.000370110364 C16.6721033,0.000370110364 17.3029943,0.260385299 17.7677419,0.723076923 L20.1754839,3.11538462 C20.6411606,3.57715313 20.9028533,4.20399995 20.9028533,4.85769231 C20.9028533,5.51138467 20.6411606,6.13823148 20.1754839,6.6 L7.51741935,19.1769231 C7.39481584,19.300306 7.23385516,19.3789151 7.06064516,19.4 L1.64129032,19.9923077 L1.5483871,20 Z M2.88774194,14.1923077 L2.42322581,18.3615385 L6.61935484,17.9 L19.083871,5.51538462 C19.2587965,5.34218289 19.3571197,5.10690906 19.3571197,4.86153846 C19.3571197,4.61616787 19.2587965,4.38089404 19.083871,4.20769231 L16.6683871,1.80769231 C16.4940679,1.63388814 16.2572762,1.53619517 16.0103226,1.53619517 C15.763369,1.53619517 15.5265772,1.63388814 15.3522581,1.80769231 L2.88774194,14.1923077 Z" id="Shape"></path>
                <path d="M17.8064516,8.62307692 C17.6006687,8.62425905 17.4028791,8.54398963 17.2567742,8.4 L12.4490323,3.60769231 C12.2526514,3.41257033 12.175956,3.12817386 12.2478364,2.86163228 C12.3197167,2.5950907 12.5292526,2.38689803 12.7975138,2.31547843 C13.065775,2.24405883 13.3520063,2.32026264 13.5483871,2.51538462 L18.3716129,7.30769231 C18.5181775,7.45212815 18.6006181,7.64874036 18.6006181,7.85384615 C18.6006181,8.05895195 18.5181775,8.25556415 18.3716129,8.4 C18.2217344,8.54783774 18.0175761,8.62842181 17.8064516,8.62307692 Z" id="Path"></path>
                <polygon id="Rectangle" transform="translate(9.986840, 10.848757) rotate(-45.000000) translate(-9.986840, -10.848757) " points="5.73608284 10.0633847 14.2326337 10.0907048 14.2375965 11.6341291 5.74104562 11.606809"></polygon>
                <path d="M23.2258065,20 L10.8387097,20 C10.4111344,20 10.0645161,19.6556037 10.0645161,19.2307692 C10.0645161,18.8059348 10.4111344,18.4615385 10.8387097,18.4615385 L23.2258065,18.4615385 C23.6533817,18.4615385 24,18.8059348 24,19.2307692 C24,19.6556037 23.6533817,20 23.2258065,20 Z" id="Path"></path>
            </g>
        </g>
    </g>
</svg>