<?xml version="1.0" encoding="UTF-8"?>
<svg width="18px" height="35px" viewBox="0 0 18 35" version="1.1" xmlns="http://www.w3.org/2000/svg" xmlns:xlink="http://www.w3.org/1999/xlink">
    <!-- Generator: Sketch 54.1 (76490) - https://sketchapp.com -->
    <title>5296500_fb_social media_facebook_facebook logo_social network_icon</title>
    <desc>Created with Sketch.</desc>
    <g id="new_updates" stroke="none" stroke-width="1" fill="none" fill-rule="evenodd">
        <g id="signin" transform="translate(-136.000000, -996.000000)" fill="#1877F2" fill-rule="nonzero">
            <g id="Group-4" transform="translate(98.000000, 964.000000)">
                <g id="5296500_fb_social-media_facebook_facebook-logo_social-network_icon" transform="translate(38.000000, 32.000000)">
                    <path d="M16.7679197,19.5388184 L17.6944599,13.2524219 L11.8981314,13.2524219 L11.8981314,9.17293945 C11.8981314,7.45308594 12.7078029,5.77670898 15.3040073,5.77670898 L17.9394307,5.77670898 L17.9394307,0.424785156 C17.9394307,0.424785156 15.5476642,-1.59872116e-14 13.2611387,-1.59872116e-14 C8.48719708,-1.59872116e-14 5.36708759,3.01068359 5.36708759,8.46118164 L5.36708759,13.2524219 L0.0605693431,13.2524219 L0.0605693431,19.5388184 L5.36708759,19.5388184 L5.36708759,34.735791 C6.43112409,34.9095605 7.52170073,35 8.63264234,35 C9.74358394,35 10.8341606,34.9095605 11.8981314,34.735791 L11.8981314,19.5388184 L16.7679197,19.5388184 Z" id="Path"></path>
                </g>
            </g>
        </g>
    </g>
</svg>