<?xml version="1.0" encoding="UTF-8"?>
<svg width="24px" height="35px" viewBox="0 0 24 35" version="1.1" xmlns="http://www.w3.org/2000/svg" xmlns:xlink="http://www.w3.org/1999/xlink">
    <!-- Generator: Sketch 54.1 (76490) - https://sketchapp.com -->
    <title>367588_googleplus_google plus_social_icon</title>
    <desc>Created with Sketch.</desc>
    <g id="new_updates" stroke="none" stroke-width="1" fill="none" fill-rule="evenodd">
        <g id="signin" transform="translate(-264.000000, -996.000000)" fill="#DD4936" fill-rule="nonzero">
            <g id="Group-2" transform="translate(228.000000, 964.000000)">
                <g id="367588_googleplus_google-plus_social_icon" transform="translate(36.000000, 32.000000)">
                    <path d="M22.3839571,26.7230556 C22.3839571,30.1988889 19.7342786,33.2077778 15.6338929,34.3959259 C14.3170857,34.7748148 12.8959071,34.9664815 11.4047143,34.9664815 C9.74396429,34.9664815 8.14412857,34.7760185 6.65516429,34.4014815 C3.77445714,33.6759259 1.63837143,32.2997222 0.647214286,30.5283333 C0.217192857,29.7624074 0,28.9467593 0,28.0984259 C0,27.2260185 0.208185714,26.3440741 0.622328571,25.4709259 C2.20182857,22.1121296 6.36545,19.8558333 10.9770143,19.8558333 C11.0245571,19.8558333 11.06755,19.8558333 11.1105429,19.854537 C10.7349357,19.1989815 10.5516357,18.5175926 10.5516357,17.8 C10.5516357,17.4425 10.5989929,17.0793519 10.6940786,16.7102778 C5.85622143,16.5996296 2.23562857,13.0662037 2.23562857,8.40907407 C2.23562857,5.11925926 4.87193571,1.91740741 8.64184286,0.62 C9.77089286,0.232962963 10.9226929,0.0333333333 12.0540643,0.0333333333 L22.3998357,0.0333333333 C22.7528786,0.0333333333 23.0628357,0.262407407 23.1713857,0.595185185 C23.28235,0.930277778 23.1624714,1.29694444 22.8750786,1.50231481 L20.56015,3.17203704 C20.4221643,3.27351852 20.2568786,3.32546296 20.0825857,3.32546296 L19.2567143,3.32546296 C20.32485,4.60490741 20.9538643,6.42462963 20.9538643,8.47333333 C20.9538643,10.7332407 19.8042929,12.8722222 17.7202071,14.5001852 C16.1090429,15.7525 16.0458071,16.0931481 16.0458071,16.8107407 C16.0638214,17.2046296 17.1884143,18.4850926 18.4262,19.3571296 C21.3113643,21.3923148 22.3839571,23.3893519 22.3839571,26.7230556 Z M12.4523286,14.0411111 L12.4887286,14.0411111 C12.4908643,14.0411111 12.4908643,14.0411111 12.4908643,14.0411111 C13.3327071,14.0411111 14.0431571,13.7105556 14.5951929,13.0833333 C15.4574643,12.1028704 15.8397571,10.4940741 15.6135571,8.78259259 C15.2107429,5.7262963 13.0226571,3.18444444 10.7372571,3.11787037 L10.6444,3.11787037 C9.83663571,3.11787037 9.11467143,3.44842593 8.56272857,4.07462963 C7.71197143,5.04490741 7.35215,6.57694444 7.57844286,8.28388889 C7.97652143,11.3356481 10.2122429,13.9733333 12.4523286,14.0411111 Z M18.0980429,27.1438889 C18.0980429,26.8574074 18.06415,26.5617593 17.9940429,26.2662037 C17.6930929,25.0915741 16.6160429,24.3593519 14.98445,23.2514815 C14.7603857,23.100463 14.5274071,22.9411111 14.2852357,22.7752778 C13.57915,22.5610185 12.8324857,22.4468519 12.0653929,22.4390741 L11.9703071,22.4381481 C8.44925714,22.4381481 5.35822857,24.5647222 5.35822857,26.9903704 C5.35822857,29.6290741 8.00577143,31.6947222 11.3842857,31.6947222 C15.83985,31.6949074 18.0980429,30.1641667 18.0980429,27.1438889 Z" id="Shape"></path>
                </g>
            </g>
        </g>
    </g>
</svg>