<?xml version="1.0" encoding="UTF-8"?>
<svg width="36px" height="35px" viewBox="0 0 36 35" version="1.1" xmlns="http://www.w3.org/2000/svg" xmlns:xlink="http://www.w3.org/1999/xlink">
    <!-- Generator: Sketch 54.1 (76490) - https://sketchapp.com -->
    <title>216394_linkedin_social_icon</title>
    <desc>Created with Sketch.</desc>
    <g id="new_updates" stroke="none" stroke-width="1" fill="none" fill-rule="evenodd">
        <g id="signin" transform="translate(-380.000000, -991.000000)" fill="#0077B5" fill-rule="nonzero">
            <g id="Group-3" transform="translate(348.000000, 964.000000)">
                <g id="216394_linkedin_social_icon" transform="translate(32.000000, 27.000000)">
                    <path d="M8.13333333,35 L0.533333333,35 L0.533333333,10 L8.13333333,10 L8.13333333,35 Z M36,35 L28.4,35 L28.4,21.645 C28.4,18.165 27.1434667,16.4325 24.6532,16.4325 C22.6797333,16.4325 21.4282667,17.4025 20.8,19.345 C20.8,22.5 20.8,35 20.8,35 L13.2,35 C13.2,35 13.3013333,12.5 13.2,10 L19.1989333,10 L19.6625333,15 L19.8196,15 C21.3776,12.5 23.8678667,10.805 27.2828,10.805 C29.8794667,10.805 31.9796,11.5175 33.5832,13.3075 C35.1969333,15.1 36,17.505 36,20.8825 L36,35 Z" id="Shape"></path>
                    <ellipse id="Oval" cx="4.33333333" cy="3.75" rx="3.92666667" ry="3.75"></ellipse>
                </g>
            </g>
        </g>
    </g>
</svg>