<?xml version="1.0" encoding="UTF-8"?>
<svg width="135px" height="135px" viewBox="0 0 135 135" version="1.1" xmlns="http://www.w3.org/2000/svg" xmlns:xlink="http://www.w3.org/1999/xlink">
    <!-- Generator: Sketch 54.1 (76490) - https://sketchapp.com -->
    <title>Group 3</title>
    <desc>Created with Sketch.</desc>
    <defs>
        <circle id="path-1" cx="48.5" cy="48.5" r="48.5"></circle>
        <filter x="-29.9%" y="-29.9%" width="159.8%" height="159.8%" filterUnits="objectBoundingBox" id="filter-2">
            <feMorphology radius="0.5" operator="dilate" in="SourceAlpha" result="shadowSpreadOuter1"></feMorphology>
            <feOffset dx="0" dy="0" in="shadowSpreadOuter1" result="shadowOffsetOuter1"></feOffset>
            <feGaussianBlur stdDeviation="9.5" in="shadowOffsetOuter1" result="shadowBlurOuter1"></feGaussianBlur>
            <feComposite in="shadowBlurOuter1" in2="SourceAlpha" operator="out" result="shadowBlurOuter1"></feComposite>
            <feColorMatrix values="0 0 0 0 0   0 0 0 0 0   0 0 0 0 0  0 0 0 0.121011801 0" type="matrix" in="shadowBlurOuter1"></feColorMatrix>
        </filter>
    </defs>
    <g id="new_updates" stroke="none" stroke-width="1" fill="none" fill-rule="evenodd">
        <g id="signin" transform="translate(-329.000000, -945.000000)">
            <g id="Group-3" transform="translate(348.000000, 964.000000)">
                <g id="Oval-Copy-2">
                    <use fill="black" fill-opacity="1" filter="url(#filter-2)" xlink:href="#path-1"></use>
                    <use stroke="#F3F3F3" stroke-width="1" fill="#FFFFFF" fill-rule="evenodd" xlink:href="#path-1"></use>
                </g>
                <g id="216394_linkedin_social_icon" transform="translate(32.000000, 27.000000)" fill="#0077B5" fill-rule="nonzero">
                    <path d="M8.13333333,35 L0.533333333,35 L0.533333333,10 L8.13333333,10 L8.13333333,35 Z M36,35 L28.4,35 L28.4,21.645 C28.4,18.165 27.1434667,16.4325 24.6532,16.4325 C22.6797333,16.4325 21.4282667,17.4025 20.8,19.345 C20.8,22.5 20.8,35 20.8,35 L13.2,35 C13.2,35 13.3013333,12.5 13.2,10 L19.1989333,10 L19.6625333,15 L19.8196,15 C21.3776,12.5 23.8678667,10.805 27.2828,10.805 C29.8794667,10.805 31.9796,11.5175 33.5832,13.3075 C35.1969333,15.1 36,17.505 36,20.8825 L36,35 Z" id="Shape"></path>
                    <ellipse id="Oval" cx="4.33333333" cy="3.75" rx="3.92666667" ry="3.75"></ellipse>
                </g>
            </g>
        </g>
    </g>
</svg>