<?xml version="1.0" encoding="UTF-8"?>
<svg width="17px" height="23px" viewBox="0 0 17 23" version="1.1" xmlns="http://www.w3.org/2000/svg" xmlns:xlink="http://www.w3.org/1999/xlink">
    <!-- Generator: Sketch 54.1 (76490) - https://sketchapp.com -->
    <title>iconfinder_location_1814106</title>
    <desc>Created with Sketch.</desc>
    <g id="Page-1" stroke="none" stroke-width="1" fill="none" fill-rule="evenodd">
        <g id="choose_room_form_flow2" transform="translate(-179.000000, -202.000000)" fill="#134563" fill-rule="nonzero">
            <g id="Group-3" transform="translate(21.000000, 129.000000)">
                <g id="Group" transform="translate(158.000000, 69.000000)">
                    <g id="iconfinder_location_1814106" transform="translate(0.000000, 4.000000)">
                        <path d="M8.5,22.85625 L8.05,22.3291667 C7.75,21.9458333 0.1,13.36875 0.1,8.24166667 C0.1,3.78541667 3.9,0.191666667 8.5,0.191666667 C13.1,0.191666667 16.9,3.83333333 16.9,8.24166667 C16.9,13.36875 9.25,21.99375 8.95,22.3291667 L8.5,22.85625 L8.5,22.85625 Z M8.5,1.29375 C4.5,1.29375 1.3,4.40833333 1.3,8.19375 C1.3,12.21875 6.85,19.0708333 8.5,21.0354167 C10.15,19.0708333 15.7,12.2666667 15.7,8.19375 C15.7,4.40833333 12.5,1.29375 8.5,1.29375 L8.5,1.29375 Z" id="Fill-55"></path>
                        <path d="M8.5,11.3083333 C6.75,11.3083333 5.3,9.91875 5.3,8.24166667 C5.3,6.56458333 6.75,5.175 8.5,5.175 C10.25,5.175 11.7,6.56458333 11.7,8.24166667 C11.7,9.91875 10.25,11.3083333 8.5,11.3083333 L8.5,11.3083333 Z M8.5,6.325 C7.4,6.325 6.5,7.1875 6.5,8.24166667 C6.5,9.29583333 7.4,10.1583333 8.5,10.1583333 C9.6,10.1583333 10.5,9.29583333 10.5,8.24166667 C10.5,7.1875 9.6,6.325 8.5,6.325 L8.5,6.325 Z" id="Fill-56"></path>
                    </g>
                </g>
            </g>
        </g>
    </g>
</svg>