<?xml version="1.0" encoding="UTF-8"?>
<svg width="51px" height="59px" viewBox="0 0 51 59" version="1.1" xmlns="http://www.w3.org/2000/svg" xmlns:xlink="http://www.w3.org/1999/xlink">
    <!-- Generator: Sketch 54.1 (76490) - https://sketchapp.com -->
    <title>iconfinder_47-Document_2674068</title>
    <desc>Created with Sketch.</desc>
    <g id="Page-1" stroke="none" stroke-width="1" fill="none" fill-rule="evenodd">
        <g id="iconfinder_47-Document_2674068" fill="#000000" fill-rule="nonzero">
            <path d="M50.6478571,10.1510204 L40.9335714,0.355102041 C40.7044128,0.125894064 40.3941893,-0.00188174547 40.0714286,-4.078362e-16 L15.7857143,-4.078362e-16 L15.7857143,2.44897959 L38.8571429,2.44897959 L38.8571429,8.57142857 C38.8571429,10.6002297 40.4881056,12.244898 42.5,12.244898 L48.5714286,12.244898 L48.5714286,55.1020408 C48.5714286,55.7783079 48.0277743,56.3265306 47.3571429,56.3265306 L12.1428571,56.3265306 L12.1428571,58.7755102 L47.3571429,58.7755102 C49.3690373,58.7755102 51,57.1308419 51,55.1020408 L51,11.0204082 C51.0018661,10.6949351 50.8751551,10.3821047 50.6478571,10.1510204 Z M42.5,9.79591837 C41.8293685,9.79591837 41.2857143,9.24769561 41.2857143,8.57142857 L41.2857143,4.1755102 L46.8592857,9.79591837 L42.5,9.79591837 Z" id="Shape"></path>
            <path d="M12.1428571,2.44897959 C12.1428571,1.09644551 11.0555487,8.28188267e-17 9.71428571,0 L2.42857143,0 C1.08730846,-8.28188267e-17 4.47528164e-16,1.09644551 4.47528164e-16,2.44897959 L4.47528164e-16,48.9795918 C-0.0014690818,49.1940935 0.0529665993,49.4052209 0.157857143,49.5918367 L5.015,58.1632653 C5.23061005,58.5469108 5.63413155,58.7840183 6.07142857,58.7840183 C6.50872559,58.7840183 6.91224709,58.5469108 7.12785714,58.1632653 L11.985,49.5918367 C12.0898905,49.4052209 12.1443262,49.1940935 12.1428571,48.9795918 L12.1428571,2.44897959 Z M2.42857143,9.79591837 L4.85714286,9.79591837 L4.85714286,47.755102 L2.42857143,47.755102 L2.42857143,9.79591837 Z M6.07142857,55.1020408 L3.30285714,50.2040816 L8.82785714,50.2040816 L6.07142857,55.1020408 Z M9.71428571,47.755102 L7.28571429,47.755102 L7.28571429,9.79591837 L9.71428571,9.79591837 L9.71428571,47.755102 Z M9.71428571,7.34693878 L2.42857143,7.34693878 L2.42857143,2.44897959 L9.71428571,2.44897959 L9.71428571,7.34693878 Z" id="Shape"></path>
        </g>
    </g>
</svg>