<?xml version="1.0" encoding="UTF-8"?>
<svg width="16px" height="16px" viewBox="0 0 16 16" version="1.1" xmlns="http://www.w3.org/2000/svg" xmlns:xlink="http://www.w3.org/1999/xlink">
    <!-- Generator: Sketch 54.1 (76490) - https://sketchapp.com -->
    <title>icon</title>
    <desc>Created with Sketch.</desc>
    <g id="new_updates" stroke="none" stroke-width="1" fill="none" fill-rule="evenodd">
        <g id="Help_Center" transform="translate(-45.000000, -297.000000)" fill="#1A1A1A" fill-rule="nonzero" stroke="#1A1A1A" stroke-width="0.661625709">
            <g id="Group-2" transform="translate(34.000000, 279.000000)">
                <path d="M23.0467354,29.3421541 L25.5999277,31.8953464 C25.8712276,32.1666464 25.8712276,32.6065105 25.5999277,32.8778105 C25.3286277,33.1491104 24.8887636,33.1491104 24.6174636,32.8778105 L22.0642713,30.3246182 C20.9946512,31.1802386 19.6378876,31.6918715 18.1616257,31.6918715 C14.708541,31.6918715 11.9092628,28.8925932 11.9092628,25.4395085 C11.9092628,21.9864238 14.708541,19.1871456 18.1616257,19.1871456 C21.6147104,19.1871456 24.4139887,21.9864238 24.4139887,25.4395085 C24.4139887,26.9157704 23.9023558,28.272534 23.0467354,29.3421541 Z M21.6639118,28.8132774 C22.5064458,27.9388523 23.0245747,26.7496881 23.0245747,25.4395085 C23.0245747,22.753776 20.8473583,20.5765595 18.1616257,20.5765595 C15.4758932,20.5765595 13.2986767,22.753776 13.2986767,25.4395085 C13.2986767,28.1252411 15.4758932,30.3024575 18.1616257,30.3024575 C19.4718053,30.3024575 20.6609695,29.7843286 21.5353946,28.9417946 C21.5536773,28.9180167 21.5737085,28.8951507 21.5954882,28.873371 C21.6172679,28.8515913 21.6401339,28.8315601 21.6639118,28.8132774 Z" id="icon"></path>
            </g>
        </g>
    </g>
</svg>