<?xml version="1.0" encoding="UTF-8"?>
<svg width="45px" height="60px" viewBox="0 0 45 60" version="1.1" xmlns="http://www.w3.org/2000/svg" xmlns:xlink="http://www.w3.org/1999/xlink">
    <!-- Generator: Sketch 54.1 (76490) - https://sketchapp.com -->
    <title>iconfinder_12.File_290138</title>
    <desc>Created with Sketch.</desc>
    <g id="Page-1" stroke="none" stroke-width="1" fill="none" fill-rule="evenodd">
        <g id="iconfinder_12.File_290138" fill="#000000" fill-rule="nonzero">
            <path d="M39.7058824,60 L5.29411765,60 C2.37044118,60 0,57.663913 0,54.7826087 L0,5.2173913 C0,2.33608696 2.37044118,0 5.29411765,0 L30.4054412,0 C30.4080882,0 30.4120588,0 30.4147059,0 L30.4411765,0 L30.4411765,0 C30.8647059,0 31.2260294,0.21 31.4682353,0.515217391 L44.4772059,13.3356522 C44.7882353,13.5743478 45,13.9304348 45,14.3478261 L45,14.3478261 L45,14.3752174 C45,14.3778261 45,14.3791304 45,14.3817391 L45,54.7826087 C45,57.663913 42.6295588,60 39.7058824,60 Z M31.7647059,4.41 L31.7647059,13.0434783 L40.5251471,13.0434783 L31.7647059,4.41 Z M42.3529412,15.6521739 L30.4411765,15.6521739 C29.7092647,15.6521739 29.1176471,15.0678261 29.1176471,14.3478261 L29.1176471,2.60869565 L5.29411765,2.60869565 C3.83294118,2.60869565 2.64705882,3.7773913 2.64705882,5.2173913 L2.64705882,54.7826087 C2.64705882,56.2226087 3.83294118,57.3913043 5.29411765,57.3913043 L39.7058824,57.3913043 C41.1670588,57.3913043 42.3529412,56.2226087 42.3529412,54.7826087 L42.3529412,15.6521739 Z M34.4117647,49.5652174 L10.5882353,49.5652174 C9.85632353,49.5652174 9.26470588,48.9821739 9.26470588,48.2608696 C9.26470588,47.5408696 9.85632353,46.9565217 10.5882353,46.9565217 L34.4117647,46.9565217 C35.1436765,46.9565217 35.7352941,47.5408696 35.7352941,48.2608696 C35.7352941,48.9821739 35.1436765,49.5652174 34.4117647,49.5652174 Z M34.4117647,39.1304348 L10.5882353,39.1304348 C9.85632353,39.1304348 9.26470588,38.5473913 9.26470588,37.826087 C9.26470588,37.106087 9.85632353,36.5217391 10.5882353,36.5217391 L34.4117647,36.5217391 C35.1436765,36.5217391 35.7352941,37.106087 35.7352941,37.826087 C35.7352941,38.5473913 35.1436765,39.1304348 34.4117647,39.1304348 Z M34.4117647,28.6956522 L10.5882353,28.6956522 C9.85632353,28.6956522 9.26470588,28.1126087 9.26470588,27.3913043 C9.26470588,26.6713043 9.85632353,26.0869565 10.5882353,26.0869565 L34.4117647,26.0869565 C35.1436765,26.0869565 35.7352941,26.6713043 35.7352941,27.3913043 C35.7352941,28.1126087 35.1436765,28.6956522 34.4117647,28.6956522 Z" id="Shape"></path>
        </g>
    </g>
</svg>