<?xml version="1.0" encoding="UTF-8"?>
<svg width="120px" height="120px" viewBox="0 0 120 120" version="1.1" xmlns="http://www.w3.org/2000/svg" xmlns:xlink="http://www.w3.org/1999/xlink">
    <!-- Generator: Sketch 54.1 (76490) - https://sketchapp.com -->
    <title>iconfinder__Tick_1904674 (1)</title>
    <desc>Created with Sketch.</desc>
    <g id="Page-1" stroke="none" stroke-width="1" fill="none" fill-rule="evenodd">
        <g id="booking_confirmed_new" transform="translate(-210.000000, -84.000000)" fill="#48B14C" fill-rule="nonzero">
            <g id="iconfinder__Tick_1904674-(1)" transform="translate(210.000000, 84.000000)">
                <path d="M60,-7.10542736e-15 C26.862915,-2.46586462e-15 4.05812251e-15,26.862915 0,60 C-4.05812251e-15,93.137085 26.862915,120 60,120 C93.137085,120 120,93.137085 120,60 C119.963832,26.8779078 93.1220922,0.0361679826 60,-7.10542736e-15 Z M60,114.375 C29.9695167,114.375 5.625,90.0304833 5.625,60 C5.625,29.9695167 29.9695167,5.625 60,5.625 C90.0304833,5.625 114.375,29.9695167 114.375,60 C114.33884,90.0154925 90.0154925,114.33884 60,114.375 Z" id="Shape"></path>
                <path d="M82.40625,39.7125 L47.26875,74.26875 L37.659375,64.153125 C36.581737,63.0711372 34.8376006,63.0467598 33.730144,64.0982071 C32.6226875,65.1496543 32.5565953,66.8927085 33.58125,68.025 L45.159375,80.2125 C45.6785425,80.7573314 46.3944078,81.0713666 47.146875,81.084375 L47.19375,81.084375 C47.9302516,81.0837672 48.6371289,80.7942841 49.1625,80.278125 L86.334375,43.715625 C87.0511391,43.0105837 87.3373214,41.9767096 87.0851197,41.003453 C86.8329181,40.0301964 86.080648,39.2654182 85.1116822,38.997203 C84.1427165,38.7289877 83.1042641,38.9980837 82.3875,39.703125 L82.40625,39.7125 Z" id="Path"></path>
            </g>
        </g>
    </g>
</svg>