<?xml version="1.0" encoding="UTF-8"?>
<svg width="85px" height="85px" viewBox="0 0 85 85" version="1.1" xmlns="http://www.w3.org/2000/svg" xmlns:xlink="http://www.w3.org/1999/xlink">
    <!-- Generator: Sketch 54.1 (76490) - https://sketchapp.com -->
    <title>iconfinder_Travel-Filled-11_3671987</title>
    <desc>Created with Sketch.</desc>
    <defs>
        <linearGradient x1="50%" y1="0%" x2="50%" y2="100%" id="linearGradient-1">
            <stop stop-color="#6774E7" offset="0%"></stop>
            <stop stop-color="#7D55B6" offset="100%"></stop>
        </linearGradient>
    </defs>
    <g id="Page-1" stroke="none" stroke-width="1" fill="none" fill-rule="evenodd">
        <g id="Artboard" transform="translate(-719.000000, -153.000000)">
            <g id="iconfinder_Travel-Filled-11_3671987" transform="translate(719.000000, 153.000000)">
                <path d="M59.8984375,56.1796875 C60.6953125,56.1796875 61.359375,55.9140625 61.890625,55.515625 C62.2890625,55.1171875 62.5546875,54.5859375 62.5546875,54.0546875 L62.5546875,48.2109375 C53.921875,41.96875 47.015625,30.546875 47.015625,19.7890625 C47.015625,9.5625 55.25,1.328125 65.34375,1.328125 C75.4375,1.328125 83.671875,9.5625 83.671875,19.65625 C83.671875,30.4140625 76.8984375,41.4375 68.53125,47.8125 L68.53125,53.921875 C68.53125,56.1796875 67.46875,58.3046875 65.875,59.765625 C64.28125,61.2265625 62.15625,62.15625 59.8984375,62.15625 L48.078125,62.15625 C46.8828125,62.15625 45.421875,62.953125 45.421875,64.4140625 C45.421875,65.7421875 46.75,66.5390625 47.9453125,66.671875 L47.9453125,66.671875 L74.90625,66.671875 C79.6875,66.671875 83.5390625,70.5234375 83.5390625,75.3046875 C83.5390625,80.0859375 79.6875,83.9375 74.90625,83.9375 L19.5234375,83.9375 C18.1953125,83.9375 10.4921875,78.359375 5.84375,70.125 C3.1875,65.4765625 1.1953125,59.8984375 1.1953125,54.0546875 C1.1953125,43.9609375 9.4296875,35.7265625 19.5234375,35.7265625 C29.6171875,35.7265625 37.8515625,43.9609375 37.8515625,54.0546875 C37.8515625,60.03125 35.859375,65.4765625 33.203125,70.125 C31.4765625,73.1796875 29.3515625,75.8359375 27.2265625,77.9609375 L74.90625,77.9609375 C76.3671875,77.9609375 77.5625,76.765625 77.5625,75.3046875 C77.5625,73.84375 76.3671875,72.6484375 74.90625,72.6484375 C66.0078125,72.6484375 56.578125,72.9140625 47.6796875,72.6484375 C43.296875,72.515625 39.4453125,69.0625 39.4453125,64.4140625 C39.4453125,59.765625 43.5625,56.1796875 48.078125,56.1796875 L49.40625,56.1796875 L59.8984375,56.1796875 L59.8984375,56.1796875 Z" id="Path" fill="url(#linearGradient-1)"></path>
                <path d="M59.8984375,54.8515625 C60.4296875,54.8515625 61.2265625,54.5859375 61.2265625,53.921875 L61.2265625,48.7421875 C56.84375,45.421875 52.859375,40.7734375 50.0703125,35.7265625 C47.28125,30.6796875 45.6875,25.1015625 45.6875,19.65625 C45.6875,8.765625 54.453125,0 65.34375,0 C76.234375,0 85,8.765625 85,19.65625 C85,25.1015625 83.40625,30.546875 80.75,35.4609375 C77.9609375,40.5078125 74.2421875,45.0234375 69.859375,48.4765625 L69.859375,54.0546875 C69.859375,59.3671875 65.2109375,63.484375 60.03125,63.484375 L48.2109375,63.484375 C47.6796875,63.484375 46.8828125,63.75 46.8828125,64.4140625 C46.8828125,65.078125 47.6796875,65.34375 48.2109375,65.34375 L48.2109375,65.34375 L48.2109375,65.34375 L75.171875,65.34375 C80.6171875,65.34375 85,69.859375 85,75.171875 C85,80.6171875 80.6171875,85 75.171875,85 L19.5234375,85 C18.4609375,85 15.0078125,82.875 11.421875,79.2890625 C6.640625,74.5078125 3.0546875,68.6640625 1.1953125,62.15625 C-2.65625,48.609375 4.25,34.1328125 19.65625,34.1328125 C34.6640625,34.1328125 41.96875,48.34375 38.1171875,62.15625 C36.65625,67.46875 33.8671875,72.3828125 30.4140625,76.5 L75.3046875,76.5 C76.1015625,76.5 76.6328125,75.8359375 76.6328125,75.171875 C76.6328125,74.375 76.1015625,73.84375 75.3046875,73.84375 C66.2734375,73.84375 57.109375,74.109375 48.078125,73.84375 L48.078125,73.84375 C42.8984375,73.7109375 38.515625,69.59375 38.515625,64.4140625 C38.515625,59.1015625 43.1640625,54.984375 48.34375,54.984375 L49.671875,54.984375 L59.8984375,54.984375 L59.8984375,54.8515625 Z M59.8984375,57.375 L48.078125,57.375 C44.2265625,57.375 40.7734375,60.296875 40.7734375,64.28125 C40.7734375,68.1328125 44.09375,71.0546875 47.8125,71.1875 C56.84375,71.453125 65.875,71.1875 74.90625,71.1875 C77.03125,71.1875 78.7578125,72.9140625 78.7578125,75.0390625 C78.7578125,77.1640625 77.03125,78.890625 74.90625,78.890625 L27.359375,78.890625 L24.3046875,78.890625 L26.4296875,76.765625 C30.546875,72.3828125 33.8671875,67.0703125 35.4609375,61.2265625 C38.9140625,49.140625 32.8046875,36.5234375 19.5234375,36.5234375 C5.84375,36.5234375 0.1328125,49.2734375 3.5859375,61.2265625 C5.3125,67.46875 8.8984375,72.9140625 13.28125,77.4296875 C16.3359375,80.6171875 18.9921875,82.4765625 19.5234375,82.4765625 L75.0390625,82.4765625 C79.0234375,82.4765625 82.34375,79.15625 82.34375,75.171875 C82.34375,71.1875 79.0234375,67.8671875 75.0390625,67.8671875 L48.078125,67.8671875 L48.078125,67.8671875 L48.078125,67.8671875 C46.0859375,67.8671875 44.2265625,66.40625 44.2265625,64.4140625 C44.2265625,62.2890625 46.21875,60.9609375 48.078125,60.9609375 L59.8984375,60.9609375 C63.6171875,60.9609375 67.203125,58.0390625 67.203125,54.0546875 L67.203125,47.4140625 C71.8515625,42.234375 74.5078125,41.3046875 78.359375,34.265625 C80.8828125,29.75 82.34375,24.703125 82.34375,19.65625 C82.34375,10.2265625 74.7734375,2.65625 65.34375,2.65625 C55.9140625,2.65625 48.34375,10.359375 48.34375,19.65625 C48.34375,24.703125 49.9375,29.8828125 52.4609375,34.53125 C55.25,39.7109375 59.1015625,43.9609375 63.8828125,47.546875 L63.8828125,54.0546875 C63.8828125,56.046875 61.890625,57.375 59.8984375,57.375 L59.8984375,57.375 Z" id="Shape" fill="#000000" fill-rule="nonzero"></path>
                <path d="M28.0234375,53.7890625 C28.0234375,49.140625 24.171875,45.2890625 19.5234375,45.2890625 C14.875,45.2890625 11.0234375,49.140625 11.0234375,53.7890625 C11.0234375,58.4375 14.875,62.2890625 19.5234375,62.2890625 C24.171875,62.15625 28.0234375,58.4375 28.0234375,53.7890625 L28.0234375,53.7890625 Z" id="Path" fill="#E6E6E6"></path>
                <path d="M26.6953125,53.7890625 C26.6953125,51.796875 25.8984375,49.9375 24.5703125,48.7421875 L24.5703125,48.7421875 C23.2421875,47.4140625 21.515625,46.6171875 19.5234375,46.6171875 C17.53125,46.6171875 15.8046875,47.4140625 14.4765625,48.7421875 L14.4765625,48.7421875 C13.1484375,50.0703125 12.3515625,51.796875 12.3515625,53.7890625 C12.3515625,55.78125 13.1484375,57.5078125 14.4765625,58.8359375 C15.8046875,60.1640625 17.53125,60.9609375 19.5234375,60.9609375 C21.515625,60.9609375 23.375,60.1640625 24.5703125,58.8359375 C25.8984375,57.5078125 26.6953125,55.6484375 26.6953125,53.7890625 L26.6953125,53.7890625 Z M26.4296875,46.8828125 C28.15625,48.609375 29.3515625,51.1328125 29.3515625,53.7890625 C29.3515625,56.4453125 28.2890625,58.96875 26.4296875,60.6953125 C24.703125,62.421875 22.1796875,63.6171875 19.5234375,63.6171875 C16.8671875,63.6171875 14.34375,62.5546875 12.6171875,60.6953125 C10.890625,58.96875 9.6953125,56.4453125 9.6953125,53.7890625 C9.6953125,51.1328125 10.7578125,48.609375 12.6171875,46.8828125 L12.6171875,46.8828125 C14.34375,45.15625 16.8671875,43.9609375 19.5234375,43.9609375 C22.1796875,43.9609375 24.703125,45.0234375 26.4296875,46.8828125 L26.4296875,46.8828125 L26.4296875,46.8828125 Z" id="Shape" fill="#000000" fill-rule="nonzero"></path>
                <path d="M59.3671875,25.6328125 C60.9609375,27.2265625 63.0859375,28.15625 65.34375,28.15625 C69.9921875,28.15625 73.84375,24.3046875 73.84375,19.65625 C73.84375,15.0078125 69.9921875,11.15625 65.34375,11.15625 C60.6953125,11.15625 56.84375,15.0078125 56.84375,19.65625 C56.84375,21.9140625 57.7734375,24.0390625 59.3671875,25.6328125 L59.3671875,25.6328125 Z" id="Path" fill="#E6E6E6"></path>
                <path d="M65.34375,26.828125 C69.328125,26.828125 72.515625,23.640625 72.515625,19.65625 C72.515625,15.671875 69.328125,12.484375 65.34375,12.484375 C61.359375,12.484375 58.171875,15.671875 58.171875,19.65625 C58.171875,23.640625 61.359375,26.828125 65.34375,26.828125 L65.34375,26.828125 Z M55.515625,19.65625 C55.515625,14.34375 59.8984375,9.828125 65.34375,9.828125 C70.7890625,9.828125 75.171875,14.2109375 75.171875,19.65625 C75.171875,25.1015625 70.7890625,29.484375 65.34375,29.484375 C59.8984375,29.3515625 55.515625,24.96875 55.515625,19.65625 L55.515625,19.65625 Z" id="Shape" fill="#000000" fill-rule="nonzero"></path>
            </g>
        </g>
    </g>
</svg>