<svg id="placeholder-filled-point" xmlns="http://www.w3.org/2000/svg" width="13.353" height="18.135" viewBox="0 0 13.353 18.135">
  <path id="Path_22" data-name="Path 22" d="M19.559,0a6.684,6.684,0,0,0-6.676,6.677A6.513,6.513,0,0,0,13.467,9.4a42.1,42.1,0,0,0,5.811,8.6.372.372,0,0,0,.563,0,42.117,42.117,0,0,0,5.811-8.6,6.51,6.51,0,0,0,.584-2.725A6.685,6.685,0,0,0,19.559,0Zm0,10.145a3.468,3.468,0,1,1,3.468-3.468A3.472,3.472,0,0,1,19.559,10.145Z" transform="translate(-12.883 0)" fill="#b5b5b5"/>
</svg>
